<svg width="65" height="59" viewBox="0 0 65 59" fill="none" xmlns="http://www.w3.org/2000/svg">
<path d="M12.5671 44.7248L23.1352 35.1034L21.3221 33.453L10.7541 43.0732C9.5411 44.1762 7.93192 44.7832 6.22016 44.7832H1.71317V47.1176H6.22016C8.61662 47.1176 10.8708 46.2679 12.5671 44.7248Z" fill="black"/>
<path d="M42.1479 14.4938L31.5798 24.1152L33.3929 25.7657L43.9609 16.1454C45.1739 15.0424 46.7831 14.4354 48.4948 14.4354H56.3176L50.8131 19.4463L52.6261 21.0968L61.226 13.2682L52.6261 5.43967L50.8131 7.09012L56.3176 12.101H48.4948C46.0984 12.101 43.8442 12.9507 42.1479 14.4938Z" fill="black"/>
<path d="M10.7541 16.1443L42.1479 44.7248C43.8443 46.2679 46.0984 47.1176 48.4949 47.1176H56.3177L50.8131 52.1285L52.6262 53.779L61.226 45.9504L52.6262 38.1219L50.8131 39.7723L56.3177 44.7832H48.4949C46.7831 44.7832 45.1726 44.1762 43.9609 43.0744L12.5671 14.4938C10.8708 12.9507 8.61662 12.101 6.22016 12.101H1.71317V14.4354H6.22016C7.93192 14.4354 9.5411 15.0424 10.7541 16.1443Z" fill="black"/>
</svg>
