<svg width="60" height="58" viewBox="0 0 60 58" fill="none" xmlns="http://www.w3.org/2000/svg">
<path d="M11.7024 5.46613V16.0315" stroke="black" stroke-width="4" stroke-linecap="round" stroke-linejoin="round"/>
<path d="M15.4011 16.0315H8.00372" stroke="black" stroke-width="4" stroke-linecap="round" stroke-linejoin="round"/>
<path d="M15.4011 32.4665H8.00372" stroke="black" stroke-width="4" stroke-linecap="round" stroke-linejoin="round"/>
<path d="M8.00372 24.2489C8.00372 24.2489 11.7024 20.7271 14.1682 24.249C16.634 27.7708 8.00372 32.4665 8.00372 32.4665" stroke="black" stroke-width="4" stroke-linecap="round" stroke-linejoin="round"/>
<path d="M8.00374 41.2711C8.00374 41.2711 10.4695 37.7492 14.1682 40.097C17.8669 42.4449 14.1682 45.3797 14.1682 45.3797C14.1682 45.3797 17.8669 48.3145 14.1682 50.6624C10.4695 53.0103 8.00372 49.4885 8.00372 49.4885" stroke="black" stroke-width="4" stroke-linecap="round" stroke-linejoin="round"/>
<path d="M14.1682 45.3797H11.7024" stroke="black" stroke-width="4" stroke-linecap="round" stroke-linejoin="round"/>
<path d="M11.7024 5.46613L8.00372 7.81398" stroke="black" stroke-width="4" stroke-linecap="round" stroke-linejoin="round"/>
<path d="M26.4972 28.9447H53.621" stroke="black" stroke-width="4" stroke-linecap="round" stroke-linejoin="round"/>
<path d="M26.4972 45.3797H53.621" stroke="black" stroke-width="4" stroke-linecap="round" stroke-linejoin="round"/>
<path d="M26.4972 12.5097H53.621" stroke="black" stroke-width="4" stroke-linecap="round" stroke-linejoin="round"/>
</svg>
